<svg xmlns="http://www.w3.org/2000/svg" version="1.1" xmlns:xlink="http://www.w3.org/1999/xlink" width="500" height="500"><svg width="500" height="500" version="1.1" viewBox="0 0 132.29 132.29" xml:space="preserve" xmlns="http://www.w3.org/2000/svg"><g transform="matrix(1.6017 0 0 1.6017 209.2 -127.2)"><g stroke-width=".26458"><path d="m-88.401 122.55c-0.44579-1.6668-2.4928-3.6454-5.2449-5.0698-3.9394-2.0388-5.9864-3.913-7.4764-6.8452-0.78725-1.5492-1.5016-3.9162-1.6652-5.5173l-0.0811-0.79375 1.6906 0.0486c4.9837 0.1433 9.3917 2.6116 10.979 6.1476 0.69596 1.5508 1.4861 4.9138 1.4861 6.3251 0 0.62532-0.10301 0.54783-0.95648-0.71949-1.4519-2.1559-4.7335-5.4565-6.7737-6.8128-1.0028-0.66669-1.8715-1.164-1.9304-1.1051-0.05888 0.0589 0.71484 0.73384 1.7194 1.4999 3.7757 2.8795 7.0069 7.1409 8.0165 10.573l0.57408 1.9513 0.43717-2.2069c0.24045-1.2138 0.81241-3.1764 1.271-4.3612 1.9893-5.1394 6.9154-11.72 11.356-15.17 2.1488-1.6693 2.2944-2.1097 0.24682-0.74668-4.197 2.7939-8.0356 7.0833-11.403 12.741l-0.92241 1.5501-0.17659-1.6824c-0.18656-1.7773 0.19977-6.4553 0.68336-8.2748 1.5493-5.8291 7.8704-10.141 16.11-10.989 1.3804-0.14213 2.5988-0.1695 2.7075-0.06082 0.10869 0.10868 0.023 1.3609-0.19046 2.7827-1.2309 8.1997-5.0256 13.839-12.137 18.035-4.4479 2.6248-6.4137 4.8396-7.5663 8.5249l-0.43196 1.3811z" fill="#3db300"></path><path d="m-65.883 151.26c-0.80036-0.12886-2.3482-0.6678-3.4396-1.1977-1.842-0.89426-2.6349-1.6103-11.052-9.981l-9.0677-9.0177 14.294-14.294 8.9502 8.936c8.2613 8.2481 8.9997 8.9178 9.5935 8.6995 1.6027-0.58911 1.3105-0.96371-8.0685-10.346l-8.8916-8.8945 2.6629-2.6228 8.6237 8.5932c5.0111 4.9934 9.0566 9.2502 9.657 10.162 2.5727 3.9054 2.795 9.3212 0.55367 13.486-1.7074 3.1727-5.6608 5.9311-9.3178 6.5014-1.9581 0.30535-2.4694 0.30262-4.4979-0.024z" fill="#3db300"></path><path d="m-112.74 151.23c0.80036-0.12886 2.3482-0.6678 3.4396-1.1977 1.842-0.89426 2.6349-1.6103 11.052-9.981l9.0677-9.0177-14.294-14.294-8.9502 8.936c-8.2613 8.2481-8.9997 8.9178-9.5934 8.6995-1.6027-0.58911-1.3105-0.96371 8.0685-10.346l8.8916-8.8945-2.6629-2.6228-8.6237 8.5932c-5.0111 4.9934-9.0566 9.2502-9.657 10.162-2.5727 3.9054-2.795 9.3212-0.55367 13.486 1.7074 3.1727 5.6608 5.9311 9.3178 6.5014 1.9581 0.30535 2.4694 0.30262 4.4979-0.024z" fill="#0e89a3"></path><path d="m-93.657 101.71c-1.0801-0.43517-1.519-2.2574-0.77863-3.2322 0.77982-1.0267 2.7897-1.0401 3.5395-0.0236 0.55727 0.75556 0.40238 2.1518-0.3187 2.8728-0.66906 0.66906-1.4343 0.78907-2.4421 0.383z" fill="#0e89a3"></path></g><path d="m-93.7 123.73c-0.73964-0.29801-1.0402-1.5458-0.5332-2.2134 0.53402-0.70309 1.9104-0.71226 2.4238-0.0161 0.38162 0.51741 0.27555 1.4735-0.21825 1.9673-0.45817 0.45817-0.98219 0.54035-1.6724 0.26228z" fill="#3db300" stroke-width=".18119"></path><path d="m-80.403 118.57c-0.35116-0.14148-0.49387-0.73392-0.25315-1.0509 0.25354-0.3338 0.907-0.33816 1.1508-8e-3 0.18118 0.24565 0.13082 0.69958-0.10362 0.93402-0.21752 0.21752-0.46632 0.25654-0.79398 0.12452z" fill="#0e89a3" stroke-width=".086022"></path><path d="m-83.773 94.525c-0.51123-0.20598-0.719-1.0685-0.36854-1.5299 0.3691-0.48596 1.3204-0.4923 1.6753-0.01117 0.26377 0.35762 0.19046 1.0185-0.15085 1.3598-0.31668 0.31668-0.67888 0.37348-1.1559 0.18128z" fill="#0e89a3" stroke-width=".12523"></path><path d="m-89.181 92.761c-0.76913-0.30989-1.0817-1.6075-0.55446-2.3017 0.55531-0.73111 1.9866-0.74066 2.5205-0.01681 0.39683 0.53803 0.28654 1.5323-0.22695 2.0458-0.47644 0.47644-1.0214 0.5619-1.739 0.27274z" fill="#3db300" stroke-width=".18841"></path></g></svg><style>@media (prefers-color-scheme: light) { :root { filter: none; } }
@media (prefers-color-scheme: dark) { :root { filter: none; } }
</style></svg>